<svg xmlns="http://www.w3.org/2000/svg" viewBox="0 0 100 100">
  <circle cx="50" cy="50" r="15" fill="#1e3a8a" />
  <ellipse cx="50" cy="50" rx="30" ry="30" fill="none" stroke="#3b82f6" stroke-width="1" />
  <rect x="40" y="20" width="5" height="3" fill="#60a5fa" transform="rotate(45 40 20)" />
  <rect x="70" y="40" width="7" height="2" fill="#93c5fd" transform="rotate(10 70 40)" />
  <rect x="30" y="60" width="4" height="4" fill="#2563eb" transform="rotate(30 30 60)" />
  <rect x="65" y="65" width="6" height="3" fill="#3b82f6" transform="rotate(80 65 65)" />
  <rect x="25" y="40" width="3" height="3" fill="#60a5fa" />
  <rect x="80" y="25" width="5" height="2" fill="#dbeafe" transform="rotate(60 80 25)" />
  <rect x="55" y="75" width="4" height="2" fill="#bfdbfe" transform="rotate(20 55 75)" />
  <rect x="45" y="35" width="2" height="5" fill="#93c5fd" transform="rotate(120 45 35)" />
</svg>